<svg xmlns="http://www.w3.org/2000/svg" version="1.1" xmlns:xlink="http://www.w3.org/1999/xlink" width="512" height="512" x="0" y="0" viewBox="0 0 24 24" style="enable-background:new 0 0 512 512" xml:space="preserve" class=""><g><g fill="#000"><path d="M5.587 6.494a4.494 4.494 0 1 1 8.988 0 4.494 4.494 0 0 1-8.988 0z" fill="#ffffff" opacity="1" data-original="#000000" class=""></path><path fill-rule="evenodd" d="M15.956 22a5.085 5.085 0 1 0 0-10.17 5.085 5.085 0 0 0 0 10.17zm.75-7.23a.75.75 0 1 0-1.5 0v.895a.5.5 0 0 1-.5.5h-.894a.75.75 0 0 0 0 1.5h.894a.5.5 0 0 1 .5.5v.894a.75.75 0 0 0 1.5 0v-.894a.5.5 0 0 1 .5-.5h.894a.75.75 0 0 0 0-1.5h-.894a.5.5 0 0 1-.5-.5z" clip-rule="evenodd" fill="#ffffff" opacity="1" data-original="#000000" class=""></path><path d="M8.896 12.257h.795l.41-.001c.444 0 .684.555.432.92a6.555 6.555 0 0 0-1.163 3.739c0 1.424.452 2.742 1.22 3.819.262.367.02.94-.432.94H4.937a2.73 2.73 0 0 1-2.73-2.729 6.688 6.688 0 0 1 6.689-6.688z" fill="#ffffff" opacity="1" data-original="#000000" class=""></path></g></g></svg>