<svg xmlns="http://www.w3.org/2000/svg" version="1.1" xmlns:xlink="http://www.w3.org/1999/xlink" width="512" height="512" x="0" y="0" viewBox="0 0 512 512" style="enable-background:new 0 0 512 512" xml:space="preserve" class=""><g><path fill-rule="evenodd" d="M372.6 403.18a8.015 8.015 0 0 0-10.374-.8 180.162 180.162 0 0 1-212.456 0 8 8 0 0 0-10.36.8l-42.259 42.2a8.217 8.217 0 0 0-2.329 6.2 7.9 7.9 0 0 0 3.036 5.8 256.324 256.324 0 0 0 316.287 0 7.932 7.932 0 0 0 3.037-5.8 8.228 8.228 0 0 0-2.337-6.2zM256 115.979c-77.224 0-140.068 62.8-140.068 140 0 77.3 62.844 140.1 140.068 140.1 77.247 0 140.076-62.8 140.076-140.1 0-77.2-62.829-140-140.076-140zm32.565 102.6c0-13.8-10.46-25.3-24.563-28.6v58.7c22.984 3.5 40.559 22.3 40.559 44.8s-17.575 41.2-40.559 44.8v15.6a8 8 0 1 1-16 0v-15.6c-22.984-3.6-40.553-22.3-40.553-44.8a8 8 0 1 1 16 0c0 13.7 10.467 25.3 24.556 28.5v-58.6c-22.984-3.6-40.553-22.3-40.553-44.8s17.569-41.3 40.553-44.8v-15.6a8 8 0 1 1 16 0v15.6c22.984 3.5 40.559 22.3 40.559 44.8a8 8 0 1 1-16 0zm-65.115 0c0-13.8 10.467-25.3 24.556-28.6v57.1c-14.089-3.2-24.556-14.8-24.556-28.5zm65.115 74.9c0 13.7-10.46 25.3-24.563 28.5v-57.1c14.1 3.3 24.563 14.8 24.563 28.6zM451.527 94.88a7.845 7.845 0 0 1 5.816 3 256.135 256.135 0 0 1 0 316.3 7.848 7.848 0 0 1-5.816 3h-.464a7.99 7.99 0 0 1-5.666-2.3l-42.252-42.3a7.9 7.9 0 0 1-.808-10.3 180.059 180.059 0 0 0 0-212.5 8.047 8.047 0 0 1 .808-10.4l42.252-42.2a7.827 7.827 0 0 1 6.13-2.3zM109.67 362.28a7.894 7.894 0 0 1-.815 10.3L66.6 414.879a7.969 7.969 0 0 1-5.652 2.3h-.486a7.844 7.844 0 0 1-5.808-3 256.135 256.135 0 0 1 0-316.3 8.069 8.069 0 0 1 11.946-.7l42.252 42.2a8.039 8.039 0 0 1 .815 10.4 180.059 180.059 0 0 0 0 212.5zm307.514-301.8a7.928 7.928 0 0 0-3.037-5.8 256.1 256.1 0 0 0-316.287 0 7.952 7.952 0 0 0-.707 11.9l42.245 42.3a8.014 8.014 0 0 0 10.374.8 180.159 180.159 0 0 1 212.456 0 8.135 8.135 0 0 0 10.374-.8l42.26-42.3a7.911 7.911 0 0 0 2.322-6.1z" fill="#ffffff" opacity="1" data-original="#000000" class=""></path></g></svg>