<svg xmlns="http://www.w3.org/2000/svg" version="1.1" xmlns:xlink="http://www.w3.org/1999/xlink" width="512" height="512" x="0" y="0" viewBox="0 0 512 512" style="enable-background:new 0 0 512 512" xml:space="preserve" class=""><g><path d="M451 151H121c-8.291 0-15 6.709-15 15v180c0 8.291 6.709 15 15 15h330c8.291 0 15-6.709 15-15V166c0-8.291-6.709-15-15-15zM211 301c-8.284 0-15-6.716-15-15s6.716-15 15-15 15 6.716 15 15-6.716 15-15 15zm0-60c-8.284 0-15-6.716-15-15s6.716-15 15-15 15 6.716 15 15-6.716 15-15 15zm90 60h-30c-8.291 0-15-6.709-15-15s6.709-15 15-15h30c8.291 0 15 6.709 15 15s-6.709 15-15 15zm90 0h-30c-8.291 0-15-6.709-15-15s6.709-15 15-15h30c8.291 0 15 6.709 15 15s-6.709 15-15 15zm0-60H271c-8.291 0-15-6.709-15-15s6.709-15 15-15h120c8.291 0 15 6.709 15 15s-6.709 15-15 15z" fill="#ffffff" opacity="1" data-original="#000000" class=""></path><path d="M121 121h195V45c0-24.814-20.186-45-45-45H91C66.186 0 46 20.186 46 45v422c0 24.814 20.186 45 45 45h180c24.814 0 45-20.186 45-45v-76H121c-24.814 0-45-20.186-45-45V166c0-24.814 20.186-45 45-45zm30-60h60c8.291 0 15 6.709 15 15s-6.709 15-15 15h-60c-8.291 0-15-6.709-15-15s6.709-15 15-15zm0 360h60c8.291 0 15 6.709 15 15s-6.709 15-15 15h-60c-8.291 0-15-6.709-15-15s6.709-15 15-15z" fill="#ffffff" opacity="1" data-original="#000000" class=""></path></g></svg>